<svg id="Capa_3" data-name="Capa 3" xmlns="http://www.w3.org/2000/svg" viewBox="0 0 71.47 40"><defs><style>.cls-1{fill:#a0131b;}</style></defs><title>icono_new_LAQ</title><polygon class="cls-1" points="47.2 22.93 44.05 22.93 44.05 21.25 45.52 21.25 45.52 1.68 25.95 1.68 25.95 21.25 27.32 21.25 27.32 22.93 24.27 22.93 24.27 0 47.2 0 47.2 22.93"/><path class="cls-1" d="M40,19.72a2.62,2.62,0,0,1-1.36.29L37.33,20l1.19.69-.83.48-2.59-1.5.58-.33s2.6.05,2.85.07a1.16,1.16,0,0,0,.58-.1c.17-.09.25-.27,0-.41a1,1,0,0,0-.85,0l-.83-.48a2.73,2.73,0,0,1,2.46,0c.82.47.54,1.08.13,1.33m-1.93-3.84-6.23,3.6,6.31,3.64,6.21-3.61Z" transform="translate(-2.38 -0.19)"/><path class="cls-1" d="M34.28,15.45v-3l-.52.29v-1L35.2,11v4ZM37.72,7.8,31.4,11.45l0,7.36,6.3-3.64Z" transform="translate(-2.38 -0.19)"/><path class="cls-1" d="M42.44,15.72l-.66-1.47-.66.71L40,14.33,41.23,13l-1.18-2.63,1.16.66.58,1.34.59-.66,1.15.67-1.18,1.26,1.17,2.69Zm2.39-4.28L38.53,7.8v7.4l6.3,3.64Z" transform="translate(-2.38 -0.19)"/><path class="cls-1" d="M23.62,37.87a2,2,0,0,1-1.43-.57,2,2,0,0,1,0-2.83,2,2,0,0,1,1.43-.6,1.89,1.89,0,0,1,1.42.61,2.07,2.07,0,0,1,.46,2.17l-.82-.92L23.23,37l.78.86a2.24,2.24,0,0,1-.39,0m3-4.81a4.2,4.2,0,0,0-3-1.16,4.24,4.24,0,0,0-3,1.16,3.82,3.82,0,0,0,0,5.63,4.27,4.27,0,0,0,3,1.15,4.42,4.42,0,0,0,1.85-.39l.67.74,1.45-1.25-.62-.7a3.57,3.57,0,0,0,.9-2.36,3.72,3.72,0,0,0-1.25-2.82" transform="translate(-2.38 -0.19)"/><path class="cls-1" d="M33.64,36.18c0,1.16-.39,1.67-1.28,1.67s-1.29-.51-1.29-1.67V32H28.88V36.4a3.34,3.34,0,0,0,1,2.57,4,4,0,0,0,5,0,3.3,3.3,0,0,0,1-2.57V32H33.64Z" transform="translate(-2.38 -0.19)"/><rect class="cls-1" x="34.81" y="31.82" width="2.19" height="7.72"/><polygon class="cls-1" points="43.49 35.79 40.39 31.82 38.45 31.82 38.45 39.54 40.55 39.54 40.55 35.4 43.8 39.52 43.81 39.54 45.59 39.54 45.59 31.82 43.49 31.82 43.49 35.79"/><rect class="cls-1" x="47.04" y="31.82" width="2.19" height="7.72"/><polygon class="cls-1" points="52.86 36.55 56.16 36.55 56.16 34.73 52.86 34.73 52.86 33.8 56.4 33.8 56.4 31.82 50.67 31.82 50.67 39.54 56.49 39.54 56.49 37.59 52.86 37.59 52.86 36.55"/><polygon class="cls-1" points="59.89 31.82 57.7 31.82 57.7 39.54 62.78 39.54 62.78 37.55 59.89 37.55 59.89 31.82"/><path class="cls-1" d="M70.54,37H68.88l.83-2.14Zm.17-5v0h-2l-3.14,7.72h2.3l.41-1h2.85l.39,1h2.32Z" transform="translate(-2.38 -0.19)"/><polygon class="cls-1" points="2.19 31.82 0 31.82 0 39.54 5.08 39.54 5.08 37.55 2.19 37.55 2.19 31.82"/><path class="cls-1" d="M12.84,37H11.18L12,34.88ZM13,32v0H11L7.87,39.73h2.31l.4-1h2.85l.4,1h2.31Z" transform="translate(-2.38 -0.19)"/></svg>