<svg xmlns="http://www.w3.org/2000/svg" viewBox="0 0 76.22 40"><defs><style>.cls-1{fill:#487f4a;}</style></defs><title>icono_new_LAPR</title><g id="LaPRimitiva"><polygon class="cls-1" points="49.72 23.21 46.54 23.21 46.54 21.52 48.02 21.52 48.02 1.7 28.2 1.7 28.2 21.52 29.59 21.52 29.59 23.21 26.51 23.21 26.51 0 49.72 0 49.72 23.21"/><polygon class="cls-1" points="2.21 32.2 0 32.2 0 40 5.13 40 5.13 37.99 2.21 37.99 2.21 32.2"/><path class="cls-1" d="M28.68,32.61l-3.18,7.8h2.33l.41-1h2.88l.39,1h2.34l-3.17-7.8Zm1.84,5.06H28.84l.84-2.16Z" transform="translate(-19.96 -0.41)"/><path class="cls-1" d="M43.94,33.3a2.9,2.9,0,0,0-1.8-.69H38.48v7.8h2.21V38.18h1.45A2.74,2.74,0,0,0,44,37.4a2.6,2.6,0,0,0,.87-2,2.68,2.68,0,0,0-1-2.1m-3.25,1.32H42a.86.86,0,0,1,.38.1c.19.08.3.34.3.68s-.11.59-.31.67a.72.72,0,0,1-.36.1H40.69Z" transform="translate(-19.96 -0.41)"/><path class="cls-1" d="M52.29,35.32a2.55,2.55,0,0,0-.82-1.92,2.81,2.81,0,0,0-2-.79H45.93v7.8h2.21V38h.7l1.57,2.39H53L51,37.53a2.44,2.44,0,0,0,1.28-2.21m-4.15-.7h1.28a.69.69,0,0,1,.67.76.77.77,0,0,1-.84.85H48.14Z" transform="translate(-19.96 -0.41)"/><rect class="cls-1" x="33.78" y="32.2" width="2.21" height="7.8"/><polygon class="cls-1" points="41.72 35.66 39.26 32.2 37.45 32.2 37.45 40 39.51 40 39.51 36.05 41.72 39.11 43.93 36.05 43.93 40 45.98 40 45.99 32.2 44.18 32.2 41.72 35.66"/><rect class="cls-1" x="47.44" y="32.2" width="2.21" height="7.8"/><polygon class="cls-1" points="50.54 34.21 52.61 34.21 52.61 40 54.82 40 54.82 34.21 56.85 34.21 56.85 32.2 50.54 32.2 50.54 34.21"/><rect class="cls-1" x="57.74" y="32.2" width="2.21" height="7.8"/><polygon class="cls-1" points="66.79 32.2 64.98 36.81 63.15 32.2 60.81 32.2 63.97 40 65.97 40 69.13 32.2 66.79 32.2"/><path class="cls-1" d="M93,32.61H91l-3.18,7.8h2.33l.41-1h2.88l.39,1h2.34Zm-.16,5.06H91.17L92,35.51Z" transform="translate(-19.96 -0.41)"/><path class="cls-1" d="M65.22,16.84a7.07,7.07,0,0,0,.08-1,6.63,6.63,0,0,0-.08-1c-2.17-.17-4.53-.32-7.06-.32-2.89,0-5.51.18-7.24.32a6.63,6.63,0,0,0-.08,1,7.07,7.07,0,0,0,.08,1c1.57.13,4.08.29,7.24.29,2.3,0,4.74-.1,7.06-.29" transform="translate(-19.96 -0.41)"/><path class="cls-1" d="M63.71,20.33A7.18,7.18,0,0,0,65,18c-2.24.18-4.59.27-6.8.27-3,0-5.38-.13-7-.26a7.12,7.12,0,0,0,1.26,2.35,30.21,30.21,0,0,0,5.72.56,28.89,28.89,0,0,0,5.55-.57" transform="translate(-19.96 -0.41)"/><path class="cls-1" d="M52.41,11.31a7.18,7.18,0,0,0-1.25,2.35c1.75-.14,4.25-.3,7-.3,2.44,0,4.71.14,6.82.3a7.23,7.23,0,0,0-1.25-2.34,28,28,0,0,0-5.57-.62,29.31,29.31,0,0,0-5.75.61" transform="translate(-19.96 -0.41)"/><path class="cls-1" d="M58.16,9.58a27.46,27.46,0,0,1,4.1.33,7.24,7.24,0,0,0-4.19-1.34,7.15,7.15,0,0,0-4.19,1.35,29,29,0,0,1,4.28-.34" transform="translate(-19.96 -0.41)"/><path class="cls-1" d="M58.16,22a30.19,30.19,0,0,1-4.24-.3A7.16,7.16,0,0,0,58.07,23a7.26,7.26,0,0,0,4.15-1.31,28.57,28.57,0,0,1-4.06.3" transform="translate(-19.96 -0.41)"/></g></svg>